<mxfile host="app.diagrams.net" modified="2024-06-01T13:17:54.442Z" agent="Mozilla/5.0 (Windows NT 10.0; Win64; x64) AppleWebKit/537.36 (KHTML, like Gecko) Chrome/125.0.0.0 Safari/537.36" etag="vBdzLadhz0VWnPin3x5X" version="24.3.1" type="device">
  <diagram name="Page-1" id="b7gGimm982l9310_s5n5">
    <mxGraphModel dx="1358" dy="586" grid="1" gridSize="10" guides="1" tooltips="1" connect="1" arrows="1" fold="1" page="1" pageScale="1" pageWidth="1100" pageHeight="850" math="0" shadow="0">
      <root>
        <mxCell id="0" />
        <mxCell id="1" parent="0" />
        <mxCell id="F3b6O8z1vERUPIJeBEPH-1" value="New User" style="shape=umlActor;verticalLabelPosition=bottom;verticalAlign=top;html=1;outlineConnect=0;" vertex="1" parent="1">
          <mxGeometry x="250" y="260" width="30" height="60" as="geometry" />
        </mxCell>
        <mxCell id="F3b6O8z1vERUPIJeBEPH-3" value="" style="rounded=0;whiteSpace=wrap;html=1;" vertex="1" parent="1">
          <mxGeometry x="370" y="70" width="400" height="680" as="geometry" />
        </mxCell>
        <mxCell id="F3b6O8z1vERUPIJeBEPH-4" value="Existing User" style="shape=umlActor;verticalLabelPosition=bottom;verticalAlign=top;html=1;outlineConnect=0;" vertex="1" parent="1">
          <mxGeometry x="250" y="500" width="30" height="60" as="geometry" />
        </mxCell>
        <mxCell id="F3b6O8z1vERUPIJeBEPH-5" value="Register" style="ellipse;whiteSpace=wrap;html=1;" vertex="1" parent="1">
          <mxGeometry x="430" y="200" width="110" height="70" as="geometry" />
        </mxCell>
        <mxCell id="F3b6O8z1vERUPIJeBEPH-6" value="Login" style="ellipse;whiteSpace=wrap;html=1;" vertex="1" parent="1">
          <mxGeometry x="430" y="440" width="110" height="70" as="geometry" />
        </mxCell>
        <mxCell id="F3b6O8z1vERUPIJeBEPH-7" value="Register via invite link" style="ellipse;whiteSpace=wrap;html=1;" vertex="1" parent="1">
          <mxGeometry x="430" y="300" width="110" height="70" as="geometry" />
        </mxCell>
        <mxCell id="F3b6O8z1vERUPIJeBEPH-8" value="Forget Password" style="ellipse;whiteSpace=wrap;html=1;" vertex="1" parent="1">
          <mxGeometry x="430" y="580" width="110" height="70" as="geometry" />
        </mxCell>
        <mxCell id="F3b6O8z1vERUPIJeBEPH-9" value="" style="endArrow=none;html=1;rounded=0;entryX=0;entryY=0.5;entryDx=0;entryDy=0;exitX=1;exitY=0.3333333333333333;exitDx=0;exitDy=0;exitPerimeter=0;" edge="1" parent="1" source="F3b6O8z1vERUPIJeBEPH-1" target="F3b6O8z1vERUPIJeBEPH-5">
          <mxGeometry width="50" height="50" relative="1" as="geometry">
            <mxPoint x="290" y="280" as="sourcePoint" />
            <mxPoint x="570" y="380" as="targetPoint" />
          </mxGeometry>
        </mxCell>
        <mxCell id="F3b6O8z1vERUPIJeBEPH-10" value="" style="endArrow=none;html=1;rounded=0;entryX=0;entryY=0.5;entryDx=0;entryDy=0;exitX=1;exitY=0.3333333333333333;exitDx=0;exitDy=0;exitPerimeter=0;" edge="1" parent="1" source="F3b6O8z1vERUPIJeBEPH-1" target="F3b6O8z1vERUPIJeBEPH-7">
          <mxGeometry width="50" height="50" relative="1" as="geometry">
            <mxPoint x="290" y="290" as="sourcePoint" />
            <mxPoint x="440" y="245" as="targetPoint" />
          </mxGeometry>
        </mxCell>
        <mxCell id="F3b6O8z1vERUPIJeBEPH-11" value="2FA OTP" style="ellipse;whiteSpace=wrap;html=1;" vertex="1" parent="1">
          <mxGeometry x="600" y="250" width="110" height="70" as="geometry" />
        </mxCell>
        <mxCell id="F3b6O8z1vERUPIJeBEPH-12" value="" style="endArrow=none;html=1;rounded=0;entryX=0;entryY=0.5;entryDx=0;entryDy=0;exitX=1;exitY=0.5;exitDx=0;exitDy=0;" edge="1" parent="1" source="F3b6O8z1vERUPIJeBEPH-5" target="F3b6O8z1vERUPIJeBEPH-11">
          <mxGeometry width="50" height="50" relative="1" as="geometry">
            <mxPoint x="520" y="340" as="sourcePoint" />
            <mxPoint x="570" y="290" as="targetPoint" />
          </mxGeometry>
        </mxCell>
        <mxCell id="F3b6O8z1vERUPIJeBEPH-13" value="" style="endArrow=none;html=1;rounded=0;entryX=0;entryY=0.5;entryDx=0;entryDy=0;exitX=1;exitY=0.5;exitDx=0;exitDy=0;" edge="1" parent="1" source="F3b6O8z1vERUPIJeBEPH-7" target="F3b6O8z1vERUPIJeBEPH-11">
          <mxGeometry width="50" height="50" relative="1" as="geometry">
            <mxPoint x="550" y="245" as="sourcePoint" />
            <mxPoint x="610" y="275" as="targetPoint" />
          </mxGeometry>
        </mxCell>
        <mxCell id="F3b6O8z1vERUPIJeBEPH-16" value="" style="endArrow=none;html=1;rounded=0;exitX=1;exitY=0.3333333333333333;exitDx=0;exitDy=0;exitPerimeter=0;entryX=0;entryY=0.5;entryDx=0;entryDy=0;" edge="1" parent="1" source="F3b6O8z1vERUPIJeBEPH-4" target="F3b6O8z1vERUPIJeBEPH-6">
          <mxGeometry width="50" height="50" relative="1" as="geometry">
            <mxPoint x="520" y="540" as="sourcePoint" />
            <mxPoint x="570" y="490" as="targetPoint" />
          </mxGeometry>
        </mxCell>
        <mxCell id="F3b6O8z1vERUPIJeBEPH-17" value="" style="endArrow=none;html=1;rounded=0;exitX=1;exitY=0.3333333333333333;exitDx=0;exitDy=0;exitPerimeter=0;entryX=0;entryY=0.5;entryDx=0;entryDy=0;" edge="1" parent="1" source="F3b6O8z1vERUPIJeBEPH-4" target="F3b6O8z1vERUPIJeBEPH-8">
          <mxGeometry width="50" height="50" relative="1" as="geometry">
            <mxPoint x="520" y="540" as="sourcePoint" />
            <mxPoint x="570" y="490" as="targetPoint" />
          </mxGeometry>
        </mxCell>
        <mxCell id="F3b6O8z1vERUPIJeBEPH-18" value="User Registration and Authentication" style="text;html=1;align=center;verticalAlign=middle;whiteSpace=wrap;rounded=0;" vertex="1" parent="1">
          <mxGeometry x="490" y="90" width="170" height="30" as="geometry" />
        </mxCell>
      </root>
    </mxGraphModel>
  </diagram>
</mxfile>
